Coordinates
version=1
nRows=8
nColumns=40
inDegrees=yes

Units are S.I. units (second, meters, Newtons, ...)
If the header above contains a line with 'inDegrees', this indicates whether rotational values are in degrees (yes) or radians (no).

endheader
time	pelvis_tilt	pelvis_list	pelvis_rotation	pelvis_tx	pelvis_ty	pelvis_tz	hip_flexion_r	hip_adduction_r	hip_rotation_r	knee_angle_r	knee_angle_r_beta	ankle_angle_r	subtalar_angle_r	mtp_angle_r	hip_flexion_l	hip_adduction_l	hip_rotation_l	knee_angle_l	knee_angle_l_beta	ankle_angle_l	subtalar_angle_l	mtp_angle_l	lumbar_extension	lumbar_bending	lumbar_rotation	arm_flex_r	arm_add_r	arm_rot_r	elbow_flex_r	pro_sup_r	wrist_flex_r	wrist_dev_r	arm_flex_l	arm_add_l	arm_rot_l	elbow_flex_l	pro_sup_l	wrist_flex_l	wrist_dev_l
      8.61000000	      1.48677162	     -1.86108825	     -4.73619980	     -0.32114740	      0.96749809	      0.01987588	    -11.96794413	      3.67517064	     -1.29307442	      6.88277815	      0.12012714	     10.03575197	      0.00000000	     -7.47097587	     21.49586762	     -5.87635908	    -17.82577715	      4.60962660	      0.08045316	     -3.15929857	     -3.45708539	     -7.47097587	     -9.32665196	      1.36751341	      6.13942594	     -7.93981119	      3.75811590	    -33.32981466	     49.55552200	     67.43196484	      0.00000000	      0.00000000	    -14.09498729	      6.02890751	    -20.28254769	     34.79146038	     66.17024890	      0.00000000	      0.00000000
      8.62000000	      1.41791906	     -1.92223211	     -4.86170552	     -0.31280898	      0.96621367	      0.01941428	    -12.32372461	      3.62614761	     -1.27744501	      7.11278995	      0.12414160	     10.01943074	      0.00000000	     -7.47111936	     21.82198620	     -5.94103631	    -17.74385180	      4.74626532	      0.08283796	     -3.15323261	     -3.43783162	     -7.47111936	     -9.25183289	      1.33488312	      6.11622319	     -7.95940127	      3.77014007	    -33.32990711	     49.57576846	     67.41943954	      0.00000000	      0.00000000	    -14.07291788	      6.03692422	    -20.27894827	     34.85041977	     66.16508182	      0.00000000	      0.00000000
      8.63000000	      1.38347654	     -1.94992569	     -5.01115039	     -0.30400254	      0.96498913	      0.01888951	    -12.80272870	      3.52368164	     -1.22464559	      7.21204555	      0.12587394	     10.02801027	      0.00000000	     -7.47115052	     21.96846558	     -5.94982132	    -17.67570974	      4.87265200	      0.08504382	     -3.16474196	     -3.42471527	     -7.47115052	     -9.15072231	      1.34714293	      6.10745107	     -7.99802904	      3.79026322	    -33.33114957	     49.55899054	     67.41824323	      0.00000000	      0.00000000	    -14.06056540	      6.04649794	    -20.27650051	     34.85242107	     66.16873791	      0.00000000	      0.00000000
      8.64000000	      1.56687161	     -2.05468433	     -5.05952316	     -0.29528546	      0.96398190	      0.01824963	    -13.54177680	      3.51104366	     -1.05611566	      7.28111470	      0.12707942	     10.19353611	      0.00000000	     -7.47156893	     22.06044490	     -6.05360270	    -17.43681323	      5.59473254	      0.09764650	     -3.25437586	     -3.27926489	     -7.47156893	     -9.39663231	      1.33251193	      6.22563260	     -8.26011316	      3.88266302	    -33.35578612	     49.43154076	     67.40750751	      0.00000000	      0.00000000	    -13.92546853	      6.11202576	    -20.26050552	     34.86197898	     66.21598983	      0.00000000	      0.00000000
      8.65000000	      1.62787079	     -2.06541235	     -5.24012213	     -0.28618376	      0.96288563	      0.01766316	    -14.09555194	      3.33719908	     -1.09007970	      7.51673344	      0.13119175	     10.24114784	      0.00000000	     -7.47171227	     22.12239037	     -6.06284409	    -17.21201854	      6.26398607	      0.10932718	     -3.27746010	     -3.23092632	     -7.47171227	     -9.40144617	      1.24990541	      6.29227143	     -8.37568260	      3.90465821	    -33.37072289	     49.38190496	     67.40312888	      0.00000000	      0.00000000	    -13.93769439	      6.12914961	    -20.26269458	     34.84085060	     66.22974146	      0.00000000	      0.00000000
      8.66000000	      1.68797168	     -2.05378235	     -5.39386113	     -0.27698230	      0.96191200	      0.01697345	    -14.62028106	      3.13981647	     -1.01950719	      7.75325554	      0.13531984	     10.27894067	      0.00000000	     -7.47182794	     22.15804056	     -6.03639338	    -16.93277310	      7.09015176	      0.12374649	     -3.32218351	     -3.19562822	     -7.47182794	     -9.39355065	      1.14082724	      6.34063094	     -8.51276005	      3.93061827	    -33.38642344	     49.32498590	     67.39927133	      0.00000000	      0.00000000	    -13.92573727	      6.14986641	    -20.26140874	     34.82914791	     66.24072598	      0.00000000	      0.00000000
      8.67000000	      1.74535876	     -1.96413319	     -5.55309477	     -0.26762633	      0.96110555	      0.01620788	    -15.12623428	      2.84732266	     -0.93662244	      8.00560689	      0.13972420	     10.30910315	      0.00000000	     -7.47193392	     22.22974085	     -5.92789725	    -16.92178821	      8.17634337	      0.14270411	     -3.43488453	     -3.17431971	     -7.47193392	     -9.32000269	      0.96188025	      6.35865329	     -8.68418055	      3.95542946	    -33.40760284	     49.25490991	     67.39544683	      0.00000000	      0.00000000	    -13.89353168	      6.16352230	    -20.25924358	     34.82275792	     66.25109078	      0.00000000	      0.00000000
      8.68000000	      1.57231188	     -2.04355967	     -5.77729891	     -0.25820910	      0.95998021	      0.01549416	    -15.31136832	      2.72678169	     -0.87116334	      8.41374594	      0.14684757	     10.51234960	      0.00000000	     -7.47278017	     22.55547848	     -6.04350131	    -16.79238412	      9.34779506	      0.16314980	     -4.41420650	     -3.21299307	     -7.47278017	     -9.01297422	      0.95410062	      6.86006458	     -9.19741722	      3.95508621	    -33.48933282	     49.06514010	     67.37631150	      0.00000000	      0.00000000	    -13.57048433	      6.15313018	    -20.26086875	     34.79903278	     66.33999307	      0.00000000	      0.00000000
